<svg version="1.2" width="1101mm" height="317.3mm" viewBox="0 0 110100 31730" preserveAspectRatio="xMidYMid" fill-rule="evenodd" clip-path="url(#a)" stroke-width="28.222" stroke-linejoin="round" xmlns="http://www.w3.org/2000/svg" xml:space="preserve"><defs class="ClipPathGroup"><clipPath id="a" clipPathUnits="userSpaceOnUse"><path d="M0 0h110100v31730H0z"/></clipPath></defs><g class="Master_Slide"><g class="Background"/><g class="BackgroundObjects"/></g><g class="SlideGroup"><g class="Slide" clip-path="url(#a)"><g class="Page"><g class="Group"><path fill="#0E0F10" d="M7963 17032c-82 1284-164 2578-256 3872-226 2055-463 4109-699 6173-31 565-62 1130-92 1705 0 52-31 123 41 123v42c2722 92 5547 82 8351 133 432 0 1880 216 2168 0 154-113 103-1191 103-1448 1202-93 2496 51 3698 82 82 0 441-41 441 41h31c-72 1263-195 2640-195 3913-555 124-1263 31-1828 11-1295-62-2579-113-3863-175-1561-41-3123-92-4684-133-2003-103-4007-196-6010-298-811 0-1623 10-2424 10-175 41-349 82-524 123 41-626 164-1294 329-1869 82-277 164-545 256-822 134-1150 103-2218 134-3400 62-1140 134-2269 195-3410 21-790 41-1581 52-2382 41-545 349-2127 226-2537-21-31-31-62-52-103-174-267-2434-82-2845-82 0-842-103-1870-21-2753 0 0 144-1109 432-1109 287 0 5896 144 5896 144s1110 102 1418 410c308 309-237 2404-278 3739Z" class="com.sun.star.drawing.ClosedBezierShape"/><path fill="#0E0F10" d="M18959 13201c1345 21 2681 51 4016 82 730-113 391 1777 350 2250-206 2793-309 5710-648 8432-51 483 93 1428-226 1777-267 288-2167 503-2660 657-72 21-432 113-432-10-144-565 82-2003 113-2640 93-2085 82-4262 267-6347 21-185 83-1058 21-1058v-41c-339 0-1017 133-1264-103-287-287 319-2650 463-2999Zm31687-1078c1315 0 2609 10 3873 71 1828 93 3348 21 4643 1202 647 596 1089 4088 935 5167 0 51 10 92-52 92-390 10-770 31-1161 41-975 10-1951 31-2927 41-442 0-1192 185-1572-41-216-133-154-524-175-770-133-1233-10-2835-1232-3256-524-175-1233-113-1695 92-278 123-658 380-740 719 10 411 21 822 31 1233 10 575-21 1078 246 1520 524 863 1552 1078 2414 1315 1079 287 2168 575 3247 862 1941 534 3215 945 3842 3154 133 462 277 893 287 1417 31 1006 206 2270-144 3184-308 801-1458 1633-2198 1910-472 175-1017 196-1531 298-2270 432-4725 678-7180 473-853-82-1849-175-2538-606-1160-750-1838-2671-1818-4129 0-349 0-750 267-945 278-195 781-62 1120-62 493-195 1479 0 2034 0 236-10 473-20 709-41 729 31 1459 51 2178 82 154-41 431-10 493 154-11 391-21 781-41 1181-11 452-113 1017 30 1438 237 699 1839 617 2528 617 975-565 1109-1366 1088-2619-10-822-174-2856-554-3410-504-760-2363-1079-3195-1377-997-359-1993-729-2979-1099-647-246-1479-380-1931-996-802-1068-740-2527-565-3934 61-472 92-914 256-1315 329-790 1213-1540 2055-1540 123-21 246-31 370-41 534-31 1058-52 1582-82Zm-37607 1969c873 0 3564-185 3010 1304-411 1120-4366 2065-5229 904-647-883 1397-2126 2065-2126 51-10 102-31 154-41v-41Zm66402 526c452 0 2928 0 3113 175 308 277-308 1304 133 1438 915 288 5455-134 5835 339 185 236-10 1037-82 1304-51 175-195 237-360 267-1469 0-2948-10-4427-10-288 0-873-144-1068 62-31 82-52 174-83 257 21 749 41 1509 52 2259-41 781-93 1561-134 2342-41 935 10 1838-92 2742-124 658-257 1315-380 1983-52 369 61 791-11 1160-41 175-154 319-318 391-288 20-575 41-863 51h-1880v-41h-31c0-894 216-1787 391-2619 472-2260 893-4746 524-7252-21-421-31-842-52-1253-524-493-2363 226-2691-339-113-215-93-565-93-832 11-277 0-657 154-852 165-216 1480-93 1798-62 175 11 493 62 616-82 155-164-113-1099-51-1428Zm-43507 812c-1007-1007-2558-1079-4037-1079-144 21-298 52-442 83-154 10-318 30-472 41-134 10-267 30-401 41-144 20-288 31-442 41-102 20-205 31-308 41-103 20-195 31-287 51-93 11-185 21-278 41-92 11-185 31-277 41-93 11-185 31-278 41-636 0-1335 257-1869 514-2455 1130-1726 3533-1921 6163-93 1273-360 2732-82 3995 729 3390 4694 3821 7684 3400 1202-165 2814-627 3564-1654 935-1284 678-2917 781-4673 123-2126 503-5639-935-7087Zm-2188 9634c-216 647-575 811-1099 1120-82 10-154 20-236 41-93 10-185 20-278 41-688 0-2075 92-2506-349-11-11-21-21-31-42-10-10-21-30-31-51-277-534-51-2732-72-3482-72-1304-154-2609-226-3913 0-298 21-606 123-853 257-636 791-647 1346-842 1079 0 2270-164 2969 606 113 113 205 257 226 411-10 699-21 1397-31 2085-31 1705 370 3687-154 5228Zm30437-9521c1202 31 2404 61 3606 92 164 21 328 52 493 72-93 421-268 822-268 1294 2394 62 4788 124 7181 195 257 42 411 93 421 411 11 257-123 894-328 1017-411 247-1654 82-2158 72-1705-31-3523 31-5157 31 0 873 93 1756 72 2670-41 575-92 1151-133 1736-31 544 31 1079-21 1602-51 555-144 1099-277 1613-93 329-185 657-288 986-61 452 144 1078-257 1345-462 329-2948 93-3677 93 103-1715 842-3246 1191-4838 196-883 83-1982 83-2948 0-677 82-1479-72-2085-41-174-175-215-339-236-576-51-2907 247-3144-205-154-308-10-842 21-1181 10-72 10-360 82-360v-41c401 0 3010 103 3072-41 164-380-165-894-103-1294Z" class="com.sun.star.drawing.ClosedBezierShape"/><path fill="#0E0F10" d="M40215 16890c462 0 1592-72 1510 647-31 247-329 288-329 576h-113c-205-257-575-781-935-617-287 144-585 760-575 1099 10 370 421 1181 822 1181 431-246 1068-174 1068 493-359 93-2568 1048-2712 1274-175 267-298 945-257 1315 41 380 863 2301 1130 2537 452 411 1038 565 1685 565 185-93 370-185 555-278 575-400 1500-1386 1253-2198-103-339-411-945-719-1119-401-216-1449 339-1592 729-83 185 10 360 10 544 92 21 175 31 267 41 277-82 555-164 832-246 21 62 267 698 113 698-472 175-955 350-1438 524-164-626-329-1243-493-1869 770-339 1397-1140 2311-1140 432-134 1110-52 1521 61 174 62 359 124 534 185 287-10 801-441 801-770-236 31-791 288-740-205 31-380 514-411 699-648v-41c894 514 801 1572-41 2065-329 185-1058-206-1243 226-154 370 421 452 359 863-51 297-267 575-400 832-483 903-1141 2362-2250 2526-462 62-1377-308-1818-472-1305-483-2589-3143-1839-4530 144-277 308-554 544-780 257-247 719-370 853-740 134-400-544-822-657-1150-278-760 678-1952 1284-2178Zm-25907 2396c319 21 637 31 956 41-103 575-93 1161-93 1787-31 1531-113 3123-144 4684 0 431 195 1325-72 1623-185 205-3842 298-4098 133-196-113-247-483-278-688-20-82-92-555-10-555v-41h1356c10-20 31-31 41-41 339-955-288-6563 72-6810 421-297 1715 0 2270-133Zm76300-754c1428 0 4479 51 5424 873 442 369 596 914 668 1499 51 370 103 1099-72 1407-72 42-133 72-195 103-390 72-3863 41-4047-82-113-82-93-277-93-411 21-1181 41-1941-1192-1941-287 0-554 10-791 103-226 82-452 246-575 482-287 534-359 1212-493 1829-92 410-185 821-277 1222-103 780-41 1674 20 2455 21 390-20 791 216 1068 339 390 955 390 1479 390 93-20 175-31 267-41 257-154 586-257 771-544 123-195 82-586 298-709 246-144 3462-134 3605 21 216 236 42 1047-51 1314-678 2106-5917 1757-7745 1397-658-133-1315-370-1870-729-473-319-812-894-966-1448-133-493-92-1110-102-1685-21-1499-155-4057 565-5218 359-585 1335-955 2003-955 92-10 195-20 298-41 102-10 195-20 298-41 92-10 174-20 267-31 102-20 195-31 298-41 92-20 174-31 267-51 92-10 195-21 298-31 113-21 226-31 339-41 123-21 246-31 369-41 237-31 483-51 719-82Zm-17024 5489c432 10 873 31 1315 41 247-103 565 0 822 0-144 2383-226 4858-226 7262-432 133-4643 185-4931 20-288-164-329-770-329-1109h31l41-41c226 51 1479 103 1613-51 175-196-10-4396-41-4992-21-257-154-801 20-986 206-216 1336-62 1685-144Zm35951-11724h565c-380 6296-617 11093-997 17399-30 93-61 175-102 267-31 11-62 31-103 41-503 52-3205-195-3400-503-288-462-93-1417-93-1972 10-729-174-1294-195-1941-31-1048 514-2455-473-3143-904-637-2208-247-3276-247 61 627 585 4828 256 5105-277 236-1417 154-1838 175-329 20-1459 174-1665-21-10-31-30-51-51-82-247-555-31-1500-51-2147-83-2249-165-4488-247-6737-20-309 62-1469-103-1633-205-206-801 20-1068 10-503-21-503-349-483-842 10-237-41-1479 41-1531 216-144 647-72 925-72h452c380-20 750-31 1130-41 349-20 698-31 1048-41 308-20 606-31 904-41 185-21 380-31 565-41 215-62 411 51 472 246 113 309 21 699 31 1038 0 554 113 3862 318 4088 206 226 956 154 1285 154 513-206 1304 0 1838 0 452-493 144-1561 154-2219 83-1181 52-863 134-2044 10-513-51-1705 82-2116 72-184 257-226 442-226 82-10 154-20 226-41 82-10 154-20 226-41l3051-801Zm-35764 7375c657 0 3544 10 2742 1263-585 935-5372 1839-6132 647-524-811 1561-1746 2106-1746 92-10 184-20 267-41 92-10 174-31 267-41 246-21 493-51 750-82Z" class="com.sun.star.drawing.ClosedBezierShape"/><path fill="#ED192D" d="M18510 12749c1336 21 2682 51 4017 82 729-113 380 1777 349 2260-215 2783-308 5700-647 8432-61 473 82 1428-236 1767-267 288-2157 503-2661 657-72 21-421 113-421-10-144-565 82-2003 113-2640 82-2085 72-4262 267-6337 10-195 72-1068 10-1068v-41c-339 0-1017 144-1253-103-298-287 319-2650 462-2999Zm31704-1058c1315 0 2620 10 3873 72 1829 93 3349 21 4643 1212 648 586 1089 4078 935 5166 0 52 10 83-51 83-391 10-771 30-1161 41-976 20-1952 30-2928 41-441 10-1181 185-1561-41-226-134-165-514-185-760-134-1243-10-2845-1233-3256-524-175-1233-124-1695 92-277 123-657 370-739 709 10 421 20 832 20 1243 21 565-10 1078 257 1509 524 863 1551 1079 2414 1315 1079 298 2168 575 3246 873 1942 524 3216 935 3842 3153 134 452 278 884 288 1418 31 996 205 2270-144 3184-308 801-1459 1623-2198 1900-473 185-1017 205-1531 298-2270 441-4725 678-7181 472-852-72-1849-174-2537-606-1161-739-1839-2670-1818-4118 0-360 0-760 267-956 277-195 781-61 1120-61 493-185 1479 0 2023 0 247-10 483-21 719-41 730 31 1459 61 2178 82 154-31 432-10 493 154-10 390-31 791-41 1181-10 452-113 1017 31 1438 236 698 1839 616 2527 616 976-565 1110-1366 1089-2619-10-811-175-2845-555-3400-503-760-2373-1078-3195-1376-996-370-1982-739-2979-1109-647-247-1469-370-1931-986-791-1068-739-2537-565-3944 62-462 93-914 257-1315 329-781 1212-1541 2054-1541 124-10 247-30 370-41 534-30 1058-51 1582-82Zm-37624 1949c863 0 3554-185 3010 1304-411 1120-4366 2065-5229 904-658-883 1397-2126 2065-2126 51-10 102-31 154-41v-41Zm66420 557c452 0 2927-10 3112 175 308 277-308 1294 134 1428 914 287 5455-134 5835 339 185 236-11 1047-83 1314-51 165-195 237-359 267-1469-10-2948-10-4428-20-287 0-873-134-1068 61-31 93-51 175-82 268 20 749 41 1499 51 2249-41 780-92 1561-133 2342-41 934 10 1848-93 2742-123 657-246 1325-380 1982-51 380 62 791-10 1161-41 185-154 318-319 390-287 21-575 41-862 62h-1870v-41h-41c0-904 216-1787 390-2630 473-2259 894-4735 524-7251-20-411-31-832-51-1253-524-493-2363 236-2692-339-113-205-92-555-92-832 10-277 0-657 154-852 164-206 1479-93 1798-62 174 21 493 62 616-72 154-175-113-1109-51-1428Zm-43535 781c-1007-1007-2548-1079-4037-1079-144 21-288 52-432 83-164 10-318 30-482 41-124 20-267 31-391 41-154 20-298 31-441 41-103 20-216 31-319 51-92 10-185 21-277 41-93 11-185 21-278 41-92 11-185 31-277 41-92 11-185 31-277 42-637 0-1336 267-1880 513-2445 1140-1716 3533-1911 6163-92 1284-359 2732-92 3995 729 3390 4694 3821 7694 3410 1202-174 2815-626 3564-1664 935-1284 678-2917 781-4673 123-2126 493-5639-945-7087Zm-2178 9644c-215 637-585 812-1099 1110-82 10-164 20-236 41-93 10-185 31-278 41-688 0-2075 92-2506-349-10-11-21-21-31-41-10-11-20-31-31-52-277-534-61-2722-82-3471-72-1305-144-2620-216-3924 0-298 11-606 113-852 267-637 802-648 1356-843 1069 0 2271-164 2969 606 103 113 195 257 226 421-10 689-31 1387-41 2075-20 1705 380 3688-144 5238Zm30454-9500c1202 31 2404 51 3606 82 164 20 329 51 493 82-92 411-267 822-267 1284 2394 62 4787 133 7181 195 256 41 411 103 421 411 20 257-123 893-329 1017-411 257-1654 82-2157 72-1705-31-3524 41-5157 41 0 862 92 1746 72 2660-41 575-93 1161-134 1736-30 544 31 1078-20 1612-52 545-144 1099-278 1603-92 328-184 657-287 986-62 452 144 1078-257 1355-462 319-2948 93-3678 93 103-1715 843-3256 1192-4848 195-873 82-1982 82-2938 0-678 82-1479-72-2085-41-185-174-226-339-236-575-51-2907 247-3143-216-154-308-10-842 20-1170 11-83 11-370 83-370v-41c400 0 3009 113 3071-41 164-380-175-884-103-1284Z" class="com.sun.star.drawing.ClosedBezierShape"/><path fill="#ED192D" d="M39954 16726c452 0 1592-72 1510 637-31 257-329 298-329 575h-123c-195-246-575-781-925-606-298 134-585 750-575 1099 0 360 421 1181 822 1181 421-246 1058-174 1058 483-349 103-2558 1058-2702 1274-185 277-308 955-267 1325 41 369 863 2290 1130 2536 452 411 1048 555 1695 555 185-82 360-175 545-267 575-401 1499-1387 1253-2208-103-329-401-935-709-1109-401-216-1448 328-1603 729-71 185 21 359 21 544 82 10 175 21 257 41 287-82 565-164 842-246 21 61 257 688 113 688-483 174-965 359-1448 534-165-627-329-1253-493-1880 770-328 1397-1129 2321-1129 432-144 1110-52 1510 61 185 62 360 123 535 175 297 0 801-442 801-771-236 42-781 288-740-195 41-380 514-411 709-657v-41c894 524 791 1582-51 2064-319 195-1048-195-1233 237-164 369 421 451 359 862-51 298-267 576-400 822-493 904-1140 2373-2260 2537-462 62-1377-318-1808-472-1315-494-2589-3154-1849-4530 154-277 308-565 554-791 257-236 720-359 843-739 133-401-534-822-658-1141-277-760 678-1951 1295-2177Zm-26093 2108c319 21 637 31 956 41-113 575-93 1161-103 1787-21 1531-113 3123-134 4684-10 431 195 1325-72 1633-185 195-3842 288-4109 123-185-113-236-483-277-688-10-82-92-555 0-555v-41h1356c10-10 21-30 31-41 349-955-278-6563 72-6809 421-298 1715 0 2280-134Zm76316-734c1428 0 4469 52 5434 873 432 370 586 925 658 1510 51 370 102 1099-72 1407-62 31-134 72-195 103-391 62-3863 31-4048-92-113-72-92-267-92-411 20-1181 41-1931-1192-1931-288 0-555 0-791 92-226 93-462 247-575 483-288 534-360 1212-493 1838-93 411-185 812-278 1223-102 780-41 1664 11 2455 30 380-11 790 226 1057 339 391 955 391 1479 391 92-11 174-31 267-41 257-154 585-257 770-534 124-206 93-596 298-709 247-144 3462-134 3606 20 216 226 41 1048-51 1305-678 2105-5917 1756-7746 1397-657-134-1315-370-1870-730-472-318-811-893-965-1448-134-493-93-1109-103-1684-20-1500-154-4057 565-5218 360-585 1336-945 2003-945 93-20 195-31 298-41 103-20 195-31 298-41 93-21 175-31 267-41 103-21 195-31 298-41 93-10 175-31 267-41 93-11 195-31 298-41 113-11 226-31 339-41 123-11 247-21 370-42 246-20 483-51 719-82Zm-17024 5485c431 21 873 31 1315 41 246-92 565 0 821 0-143 2383-226 4858-226 7262-431 133-4643 185-4930 20-288-164-329-770-329-1109h31c20-10 30-21 41-41 226 51 1479 103 1613-41 174-206-11-4406-42-5002-20-247-154-791 21-986 205-216 1335-62 1685-144Zm35950-11719h565c-380 6306-626 11103-996 17399-31 92-62 185-103 267-31 21-61 31-103 51-503 52-3205-205-3400-503-287-462-92-1428-92-1982 10-719-185-1294-195-1941-31-1038 513-2455-473-3143-904-627-2209-237-3277-237 62 617 586 4817 257 5095-277 236-1418 154-1839 174-329 21-1459 185-1664-20-10-21-31-51-51-72-257-565-31-1510-52-2157-82-2249-164-4488-246-6738-21-308 61-1458-103-1633-206-205-801 21-1068 21-504-21-504-350-483-843 10-246-41-1489 41-1540 216-144 647-72 924-72h452c380-10 750-31 1130-41 350-10 699-21 1048-41 308-11 606-21 904-41 185-11 380-21 565-41 216-62 411 61 473 246 113 308 20 709 31 1048 10 544 113 3862 318 4077 205 226 955 154 1284 154 514-195 1305 0 1839 0 452-493 144-1551 154-2218 82-1181 51-863 133-2044 11-503-51-1705 83-2116 72-185 256-216 441-216 83-20 154-30 226-41 83-20 154-31 226-41 1017-267 2034-534 3051-811Zm-35764 7385c658 0 3544 0 2743 1263-596 924-5373 1828-6133 647-524-822 1562-1746 2106-1746 93-21 185-31 267-41 93-21 175-31 267-41 247-31 493-52 750-82Z" class="com.sun.star.drawing.ClosedBezierShape"/><path fill="#ED192D" d="M7511 16580c-82 1284-174 2578-256 3872-237 2055-473 4109-699 6173-31 565-62 1130-92 1705 0 52-31 124 41 124v41c2722 92 5547 82 8351 133 422 0 1870 216 2168 0 144-113 103-1191 103-1448 1202-82 2486 51 3698 82 82 0 431-41 431 41h41c-72 1264-195 2640-195 3913-565 124-1263 31-1839 11-1284-62-2568-113-3852-175-1561-41-3133-92-4695-133-2003-103-4006-196-5999-298-811 0-1623 10-2434 10-175 41-339 82-514 123 31-626 164-1294 329-1869 82-277 164-544 246-822 144-1150 113-2218 144-3399 62-1141 123-2270 185-3410 20-791 41-1582 62-2383 41-545 349-2126 226-2537-21-31-42-62-52-93-174-277-2445-92-2856-92 0-842-102-1870-20-2753 0 0 144-1109 442-1109 287 0 5886 144 5886 144s1120 102 1428 411c308 308-247 2403-278 3738Z" class="com.sun.star.drawing.ClosedBezierShape"/></g><path fill="#0E0F10" d="M66074 4791s-98 16-131-82c-33-82 33-99 82-115 49-17 542-148 526-461 0 0 0-213-312-263-329-65-427-115-510-279-82-148-32-510 247-542 328-17 985 98 1298 641 0 0 377 920-1200 1101Zm4551 181c-50 115-99 279-345 312 0 0-2612 82-2744 280 0 0-98 98 50 131s722 115 1018 148c296 17 1314 49 1676 510 0 0 197 230 164 739 0 494-99 674-296 839-213 181-2004 920-3104-329 0 0-493-592 213-1019 0 0 526-313 1791 98 0 0 394 148 377 296-32 148-328 296-772 280-410-17-739-247-673-214 66 49-444-247-608-82-164 181-115 296 33 378 378 247 1905 197 2365-296 0 0 198-181-82-362-263-164-1051-279-1347-295-295-33-1380-50-1544-329 0 0-148-197 49-773 198-575 1462-756 2021-789 0 0 1511 0 1790 312 0 0 17 66-32 165Zm-6998 3518c-378 871-706 1742-920 3074 0 0-49 263-263 164-213-82-542-444-591-937-66-658 246-1726 870-2959-164-296-279-690-164-1249 0 0 181-1052 1265-1956 0 0 131-115 197-83 82 33 33 379-33 543-65 164-558 970-558 970s-312 542-247 970c575-839 1889-2515 2645-1940 476 362 444 1479 66 2120-312 510-1167 1562-2267 1283Zm-1068-3041c-460 98-1659 115-1659 115l-164 476s591-33 1035 33c0 0 131-16 148 148 0 165-17 345-17 345s-16 115-164 132c-164 16-1298 33-1298 33l-197 608s-82 148 82 115c148-33 1331-230 1479-197 164 49 345 279 279 476-66 247-1265 970-1988 888 0 0-361 17-657-509-296-494 132-1398 132-1398s-165-427-33-575c0 0 82-66 312-66l312-592s-329 0-526-246c-164-230-180-329-49-395 164-65 1544-279 2480-213 0 0 329-33 592 542 0 0 131 230-99 280Zm-3614 2202c-131 280-460 576-837 378-395-197-970-1496-970-1496s-230-476-279-460c0 0-49-98-98 411-33 526-33 1512-247 1677-197 164-427 82-542-99-115-197-148-624-66-1381 99-772 296-1578 526-1824 246-247 411-66 493 16 0 0 296 280 772 1102l82 131s427 789 476 789c0 0 33 33 83 17 32-17 32-263 32-263s-82-839-460-2252c0 0-49-181 0-346 50-164 214-82 214-82s624 329 903 1397c280 1069 50 2006-82 2285Zm-6964-3863c-526 165-888 82-1200-49-147 230-230 312-328 312-148 17-279-230-312-312-17-66-82-164 0-395-296-295-312-657-247-904 66-279 625-1348 2185-1430 0 0 772-33 904 378 0 0 739 17 706 674-17 674-838 1463-1708 1726Zm3876 1085c-49 99-82 263-361 280 0 0-2596 115-2727 296 0 0-99 98 33 131 148 33 739 132 1035 148 279 16 1314 49 1659 526 0 0 213 230 197 707-33 509-132 707-329 871-213 164-1987 904-3088-345 0 0-509-592 197-1019 0 0 526-296 1807 98 0 0 378 148 362 296-17 148-329 313-756 280-427-17-739-230-673-198 49 17-444-263-608-82-165 165-132 280 16 378 394 247 1922 198 2382-296 0 0 197-197-82-378-263-164-1051-279-1364-296-295-32-1363-49-1527-328 0 0-164-214 33-756 197-576 1478-773 2020-806 0 0 1528-16 1791 312 0 0 32 66-17 181Zm-4386 3288c-180 131-575 49-673-99-115-148-132-690-82-1529 49-854 82-1906 279-2087 197-148 312 0 378 115 82 115 180 246 197 526 16 263 33 1677 33 1677s49 1265-132 1397Zm-3630 329c-1380 378-2677 131-3384-66-16 279-49 394-98 444-66 65-526 312-756-66-99-181-148-493-181-773-1560-772-2267-1857-2299-1906-33-33-378-428 0-888 345-411 1478-789 2480-937 66-855 181-1496 312-1792 148-345 329-33 476 214 132 181 181 920 181 1529 657-17 1051 49 1774 197 953 197 1561 707 1495 1249-49 543-558 756-756 773-197 16-492-148-492-148-214-99-17-181 246-296 279-132 214-263 214-263-83-312-1331-559-2547-592-32 691-32 1808-32 2466 854 197 1494 181 1494 181s3154 0 3319-2006c147-2005-3039-4027-5405-4718-2382-690-3745-295-3860-230-131 66 0 82 0 82s115 17 345 99 49 197 49 197c-410 132-870 33-952-148-83-197 65-361 246-591 181-247 361-247 361-247 2990-937 6522 1019 6522 1019 3334 1792 3843 3814 3761 4587-82 772-410 2054-2513 2630Zm17478-2598c-296 296-821 872-1249 1661 428-33 855-263 986-378 214-165 706-658 641-1315 0 0-33-329-378 32ZM52736 1914c-493 83-1265 691-1626 1233 542 115 1511 99 1971-772 0 0 214-526-345-461Zm-2152 362c-164 247-180 411-115 526 197-279 542-723 1035-1019-378 16-706 164-920 493Zm-9133 3238c-345 148-131 395-131 395 624 690 1380 1134 2102 1430 132-1167 132-1578 148-2170-1150 49-1823 214-2119 345Z" class="com.sun.star.drawing.ClosedBezierShape"/></g></g></g></svg>